<svg xmlns="http://www.w3.org/2000/svg" width="43.191" height="33.106" viewBox="0 0 43.191 33.106">
  <g id="coma" transform="translate(42.591 32.506) rotate(180)">
    <g id="Group_1637" data-name="Group 1637" transform="translate(41.991 31.828) rotate(180)">
      <g id="Page-1" transform="translate(0 0)">
        <g id="Symbols_quotemark" data-name="Symbols/quotemark" transform="translate(0 0)">
          <g id="qute_mark" transform="translate(0 0)">
            <path id="Oval" d="M19.946,22a9.893,9.893,0,0,1-9.973,9.832A9.893,9.893,0,0,1,0,22,16.327,16.327,0,0,1,3.4,11.842,110.187,110.187,0,0,1,11.377.927,2.65,2.65,0,0,1,14.564.273l.517.255a2.572,2.572,0,0,1,1.284,3.221q-2.325,6.126-3.3,8.85A9.228,9.228,0,0,1,19.946,22Zm-6.4-18.781a.518.518,0,0,1-.09-.114.531.531,0,0,1-.2-.014l0,.01.277.136ZM6.015,13.571A13.372,13.372,0,0,0,3.149,22a6.765,6.765,0,0,0,6.824,6.727A6.765,6.765,0,0,0,16.8,22c0-3.523-1.823-6.05-6.035-6.748l-1.782-.3.541-1.7c.4-1.247,1.525-4.328,3.4-9.285A114.878,114.878,0,0,0,6.015,13.571Z" transform="translate(22.045)" fill="#03bb6d" stroke="#fff" stroke-width="1.2"/>
            <path id="Oval-2" data-name="Oval" d="M19.946,22a9.893,9.893,0,0,1-9.973,9.832A9.893,9.893,0,0,1,0,22,16.327,16.327,0,0,1,3.4,11.842,110.209,110.209,0,0,1,11.377.927,2.65,2.65,0,0,1,14.564.273l.517.255a2.572,2.572,0,0,1,1.284,3.221q-2.325,6.126-3.3,8.85A9.228,9.228,0,0,1,19.946,22Zm-6.4-18.781a.518.518,0,0,1-.09-.114.531.531,0,0,1-.2-.014l0,.01.277.136ZM6.015,13.571A13.372,13.372,0,0,0,3.149,22a6.765,6.765,0,0,0,6.824,6.727A6.765,6.765,0,0,0,16.8,22c0-3.523-1.823-6.05-6.035-6.748l-1.782-.3.541-1.7c.4-1.247,1.525-4.328,3.4-9.285A114.891,114.891,0,0,0,6.015,13.571Z" fill="#03bb6d" stroke="#fff" stroke-width="1.2"/>
          </g>
        </g>
      </g>
    </g>
  </g>
</svg>
