<?xml version="1.0" encoding="utf-8"?>
<!-- Generator: Adobe Illustrator 22.1.0, SVG Export Plug-In . SVG Version: 6.00 Build 0)  -->
<svg version="1.1" id="star" xmlns="http://www.w3.org/2000/svg" xmlns:xlink="http://www.w3.org/1999/xlink" x="0px" y="0px"
	 width="127.5px" height="21.9px" viewBox="0 0 127.5 21.9" style="enable-background:new 0 0 127.5 21.9;" xml:space="preserve">
<style type="text/css">
	.st0{fill:#FABB05;}
	.st1{opacity:0.7;}
	.st2{fill:#C8CDD5;}
</style>
<path id="Path_4092" class="st0" d="M11.4,17.9l-7.1,4L5.9,14L0,8.4l8-1L11.4,0l3.4,7.4l8,1l-5.9,5.5l1.6,7.9L11.4,17.9z"/>
<path id="Path_4092-2" class="st0" d="M37.6,17.9l-7.1,4l1.6-7.9l-5.9-5.5l8-1l3.4-7.4L41,7.4l8,1l-5.9,5.5l1.6,7.9L37.6,17.9z"/>
<path id="Path_4092-3" class="st0" d="M63.8,17.9l-7.1,4l1.6-7.9l-5.9-5.5l8-1l3.4-7.4l3.4,7.4l8,1L69.3,14l1.6,7.9L63.8,17.9z"/>
<path id="Path_4092-4" class="st0" d="M89.9,17.9l-7.1,4l1.6-7.9l-5.9-5.5l8-1l3.4-7.4l3.4,7.4l8,1L95.4,14l1.6,7.9L89.9,17.9z"/>
<g>
	<g id="Mask_Group_50" transform="translate(116.076 -0.002)" class="st1">
		<path id="Path_4095" class="st2" d="M0,17.9l-7.1,4l1.6-7.9l-5.9-5.5l8-1L0,0.1l3.4,7.4l8,1L5.5,14l1.6,7.9L0,17.9z"/>
	</g>
</g>
<g>
	<g id="Mask_Group_49" transform="translate(104.695 -0.002)">
		<path id="Path_4092-5_2_" class="st0" d="M11.4,17.9l-7.1,4L5.9,14L0,8.4l8-1L11.4,0"/>
	</g>
</g>
</svg>
