<svg xmlns="http://www.w3.org/2000/svg" width="122.509" height="20.902" viewBox="0 0 122.509 20.902">
  <g id="star-one" transform="translate(-200 -2241.316)">
    <path id="Path_4092" data-name="Path 4092" d="M10.543,22.957l-6.2,3.477L5.73,19.452.516,14.619l7.052-.838,2.975-6.465,2.974,6.465,7.052.838-5.213,4.833,1.384,6.982Z" transform="translate(199.484 2235.784)" fill="#fabb05" fill-rule="evenodd"/>
    <path id="Path_4092-2" data-name="Path 4092" d="M10.543,22.957l-6.2,3.477L5.73,19.452.516,14.619l7.052-.838,2.975-6.465,2.974,6.465,7.052.838-5.213,4.833,1.384,6.982Z" transform="translate(225.098 2235.784)" fill="#fabb05" fill-rule="evenodd"/>
    <path id="Path_4092-3" data-name="Path 4092" d="M10.543,22.957l-6.2,3.477L5.73,19.452.516,14.619l7.052-.838,2.975-6.465,2.974,6.465,7.052.838-5.213,4.833,1.384,6.982Z" transform="translate(250.713 2235.784)" fill="#fabb05" fill-rule="evenodd"/>
    <path id="Path_4092-4" data-name="Path 4092" d="M10.543,22.957l-6.2,3.477L5.73,19.452.516,14.619l7.052-.838,2.975-6.465,2.974,6.465,7.052.838-5.213,4.833,1.384,6.982Z" transform="translate(276.327 2235.784)" fill="#fabb05" fill-rule="evenodd"/>
    <path id="Path_4092-5" data-name="Path 4092" d="M11.479,24.417,4.7,28.218l1.513-7.634L.516,15.3l7.71-.916,3.252-7.068,3.252,7.068,7.71.916-5.7,5.284,1.513,7.634Z" transform="translate(300.069 2234)" fill="#fabb05" fill-rule="evenodd"/>
  </g>
</svg>
